<mxfile host="app.diagrams.net" agent="Mozilla/5.0 (Windows NT 10.0; Win64; x64) AppleWebKit/537.36 (KHTML, like Gecko) Chrome/109.0.0.0 Safari/537.36" version="26.2.5">
  <diagram name="Page-1" id="0yZ69Bxo2dZMSnTIlY5Q">
    <mxGraphModel dx="476" dy="267" grid="1" gridSize="10" guides="1" tooltips="1" connect="1" arrows="1" fold="1" page="1" pageScale="1" pageWidth="827" pageHeight="1169" math="1" shadow="0">
      <root>
        <mxCell id="0" />
        <mxCell id="1" parent="0" />
        <mxCell id="a3bW4DTN9IqOlmqZmvGn-9" value="" style="endArrow=open;html=1;rounded=0;endFill=0;exitX=0.519;exitY=0.444;exitDx=0;exitDy=0;exitPerimeter=0;" edge="1" parent="1" source="a3bW4DTN9IqOlmqZmvGn-5">
          <mxGeometry width="50" height="50" relative="1" as="geometry">
            <mxPoint x="130" y="350" as="sourcePoint" />
            <mxPoint x="230" y="320" as="targetPoint" />
          </mxGeometry>
        </mxCell>
        <mxCell id="a3bW4DTN9IqOlmqZmvGn-1" value="" style="endArrow=open;html=1;rounded=0;endFill=0;" edge="1" parent="1">
          <mxGeometry width="50" height="50" relative="1" as="geometry">
            <mxPoint x="120" y="360" as="sourcePoint" />
            <mxPoint x="120" y="240" as="targetPoint" />
          </mxGeometry>
        </mxCell>
        <mxCell id="a3bW4DTN9IqOlmqZmvGn-2" value="" style="endArrow=open;html=1;rounded=0;endFill=0;" edge="1" parent="1">
          <mxGeometry width="50" height="50" relative="1" as="geometry">
            <mxPoint x="120" y="360" as="sourcePoint" />
            <mxPoint x="240" y="360" as="targetPoint" />
          </mxGeometry>
        </mxCell>
        <mxCell id="a3bW4DTN9IqOlmqZmvGn-3" value="" style="ellipse;whiteSpace=wrap;html=1;aspect=fixed;" vertex="1" parent="1">
          <mxGeometry x="115" y="355" width="10" height="10" as="geometry" />
        </mxCell>
        <mxCell id="a3bW4DTN9IqOlmqZmvGn-4" value="" style="ellipse;whiteSpace=wrap;html=1;aspect=fixed;" vertex="1" parent="1">
          <mxGeometry x="NaN" y="NaN" width="NaN" height="20" as="geometry" />
        </mxCell>
        <mxCell id="a3bW4DTN9IqOlmqZmvGn-5" value="" style="ellipse;whiteSpace=wrap;html=1;aspect=fixed;fillColor=#000000;" vertex="1" parent="1">
          <mxGeometry x="119" y="359" width="2" height="2" as="geometry" />
        </mxCell>
        <mxCell id="a3bW4DTN9IqOlmqZmvGn-6" value="$$\overrightarrow{u&#39;_1}$$" style="text;html=1;align=center;verticalAlign=middle;whiteSpace=wrap;rounded=0;" vertex="1" parent="1">
          <mxGeometry x="195" y="359" width="60" height="30" as="geometry" />
        </mxCell>
        <mxCell id="a3bW4DTN9IqOlmqZmvGn-7" value="$$\overrightarrow{u&#39;_2}$$" style="text;html=1;align=center;verticalAlign=middle;whiteSpace=wrap;rounded=0;" vertex="1" parent="1">
          <mxGeometry x="70" y="230" width="60" height="30" as="geometry" />
        </mxCell>
        <mxCell id="a3bW4DTN9IqOlmqZmvGn-8" value="$$\overrightarrow{u&#39;_3}$$" style="text;html=1;align=center;verticalAlign=middle;whiteSpace=wrap;rounded=0;" vertex="1" parent="1">
          <mxGeometry x="70" y="355" width="60" height="30" as="geometry" />
        </mxCell>
        <mxCell id="a3bW4DTN9IqOlmqZmvGn-10" value="" style="verticalLabelPosition=bottom;verticalAlign=top;html=1;shape=mxgraph.basic.arc;startAngle=0.194216729210609;endAngle=0.24830692617590225;dashed=1;dashPattern=1 1;" vertex="1" parent="1">
          <mxGeometry x="70" y="310" width="100" height="100" as="geometry" />
        </mxCell>
        <mxCell id="a3bW4DTN9IqOlmqZmvGn-11" value="$$\rm{d}\theta_3$$" style="text;html=1;align=center;verticalAlign=middle;whiteSpace=wrap;rounded=0;" vertex="1" parent="1">
          <mxGeometry x="150" y="335" width="60" height="30" as="geometry" />
        </mxCell>
        <mxCell id="a3bW4DTN9IqOlmqZmvGn-12" value="" style="endArrow=open;html=1;rounded=0;endFill=0;strokeColor=#3333FF;" edge="1" parent="1">
          <mxGeometry width="50" height="50" relative="1" as="geometry">
            <mxPoint x="240" y="359" as="sourcePoint" />
            <mxPoint x="230" y="320" as="targetPoint" />
          </mxGeometry>
        </mxCell>
        <mxCell id="a3bW4DTN9IqOlmqZmvGn-13" value="$$\rm{d}\theta_3\overrightarrow{u&#39;_2}$$" style="text;html=1;align=center;verticalAlign=middle;whiteSpace=wrap;rounded=0;textShadow=0;fontColor=#3333FF;" vertex="1" parent="1">
          <mxGeometry x="230" y="320" width="60" height="30" as="geometry" />
        </mxCell>
        <mxCell id="a3bW4DTN9IqOlmqZmvGn-14" value="" style="endArrow=open;html=1;rounded=0;endFill=0;exitX=0.519;exitY=0.444;exitDx=0;exitDy=0;exitPerimeter=0;" edge="1" parent="1" source="a3bW4DTN9IqOlmqZmvGn-18">
          <mxGeometry width="50" height="50" relative="1" as="geometry">
            <mxPoint x="370" y="350" as="sourcePoint" />
            <mxPoint x="320" y="250" as="targetPoint" />
          </mxGeometry>
        </mxCell>
        <mxCell id="a3bW4DTN9IqOlmqZmvGn-15" value="" style="endArrow=open;html=1;rounded=0;endFill=0;" edge="1" parent="1">
          <mxGeometry width="50" height="50" relative="1" as="geometry">
            <mxPoint x="360" y="360" as="sourcePoint" />
            <mxPoint x="360" y="240" as="targetPoint" />
          </mxGeometry>
        </mxCell>
        <mxCell id="a3bW4DTN9IqOlmqZmvGn-16" value="" style="endArrow=open;html=1;rounded=0;endFill=0;" edge="1" parent="1">
          <mxGeometry width="50" height="50" relative="1" as="geometry">
            <mxPoint x="360" y="360" as="sourcePoint" />
            <mxPoint x="480" y="360" as="targetPoint" />
          </mxGeometry>
        </mxCell>
        <mxCell id="a3bW4DTN9IqOlmqZmvGn-17" value="" style="ellipse;whiteSpace=wrap;html=1;aspect=fixed;" vertex="1" parent="1">
          <mxGeometry x="355" y="355" width="10" height="10" as="geometry" />
        </mxCell>
        <mxCell id="a3bW4DTN9IqOlmqZmvGn-18" value="" style="ellipse;whiteSpace=wrap;html=1;aspect=fixed;fillColor=#000000;" vertex="1" parent="1">
          <mxGeometry x="359" y="359" width="2" height="2" as="geometry" />
        </mxCell>
        <mxCell id="a3bW4DTN9IqOlmqZmvGn-19" value="$$\overrightarrow{u&#39;_3}$$" style="text;html=1;align=center;verticalAlign=middle;whiteSpace=wrap;rounded=0;" vertex="1" parent="1">
          <mxGeometry x="435" y="359" width="60" height="30" as="geometry" />
        </mxCell>
        <mxCell id="a3bW4DTN9IqOlmqZmvGn-20" value="$$\overrightarrow{u&#39;_1}$$" style="text;html=1;align=center;verticalAlign=middle;whiteSpace=wrap;rounded=0;" vertex="1" parent="1">
          <mxGeometry x="350" y="240" width="60" height="30" as="geometry" />
        </mxCell>
        <mxCell id="a3bW4DTN9IqOlmqZmvGn-21" value="$$\overrightarrow{u&#39;_2}$$" style="text;html=1;align=center;verticalAlign=middle;whiteSpace=wrap;rounded=0;" vertex="1" parent="1">
          <mxGeometry x="310" y="355" width="60" height="30" as="geometry" />
        </mxCell>
        <mxCell id="a3bW4DTN9IqOlmqZmvGn-22" value="" style="verticalLabelPosition=bottom;verticalAlign=top;html=1;shape=mxgraph.basic.arc;startAngle=0.9454060442831853;endAngle=0;dashed=1;dashPattern=1 1;" vertex="1" parent="1">
          <mxGeometry x="310" y="310" width="100" height="100" as="geometry" />
        </mxCell>
        <mxCell id="a3bW4DTN9IqOlmqZmvGn-23" value="$$\rm{d}\theta_2$$" style="text;html=1;align=center;verticalAlign=middle;whiteSpace=wrap;rounded=0;" vertex="1" parent="1">
          <mxGeometry x="319" y="281" width="60" height="30" as="geometry" />
        </mxCell>
        <mxCell id="a3bW4DTN9IqOlmqZmvGn-24" value="" style="endArrow=open;html=1;rounded=0;endFill=0;strokeColor=#3333FF;" edge="1" parent="1">
          <mxGeometry width="50" height="50" relative="1" as="geometry">
            <mxPoint x="360" y="240" as="sourcePoint" />
            <mxPoint x="320" y="250" as="targetPoint" />
          </mxGeometry>
        </mxCell>
        <mxCell id="a3bW4DTN9IqOlmqZmvGn-25" value="$$\rm{d}\theta_2\overrightarrow{u&#39;_3}$$" style="text;html=1;align=center;verticalAlign=middle;whiteSpace=wrap;rounded=0;textShadow=0;fontColor=#3333FF;" vertex="1" parent="1">
          <mxGeometry x="310" y="210" width="60" height="30" as="geometry" />
        </mxCell>
      </root>
    </mxGraphModel>
  </diagram>
</mxfile>
